<?xml version="1.0" standalone="no"?>
<!DOCTYPE svg PUBLIC "-//W3C//DTD SVG 20010904//EN"
 "http://www.w3.org/TR/2001/REC-SVG-20010904/DTD/svg10.dtd">
<svg version="1.0" xmlns="http://www.w3.org/2000/svg"
 width="512.000000pt" height="512.000000pt" viewBox="0 0 512.000000 512.000000"
 preserveAspectRatio="xMidYMid meet">
<metadata>
Created by potrace 1.11, written by Peter Selinger 2001-2013
</metadata>
<g transform="translate(0.000000,512.000000) scale(0.100000,-0.100000)"
fill="#000000" stroke="none">
<path d="M2511 5103 c-11 -10 -24 -32 -27 -50 -5 -25 -1 -37 18 -56 21 -21 36
-25 133 -31 148 -9 287 -32 413 -67 140 -39 147 -44 92 -58 -176 -45 -505
-164 -642 -232 l-58 -29 -187 10 c-289 16 -632 -11 -848 -66 -34 -9 63 74 173
147 180 119 379 205 577 249 112 25 142 40 155 76 13 33 -12 81 -45 90 -89 22
-454 -100 -669 -224 -141 -82 -241 -158 -374 -287 -236 -227 -389 -469 -492
-776 -215 -641 -79 -1339 362 -1862 46 -54 116 -128 156 -164 l73 -66 -3 -51
-3 -51 -70 -5 c-81 -6 -109 -19 -130 -60 -28 -53 -20 -88 41 -177 65 -96 146
-174 214 -205 l48 -22 12 -95 c7 -53 19 -108 26 -122 23 -46 77 -53 114 -14
21 23 22 30 16 100 -4 42 -9 82 -13 90 -4 11 3 15 28 15 91 0 191 45 314 140
l90 69 11 -32 c35 -100 113 -189 201 -229 73 -34 209 -32 283 3 l55 25 55 -25
c47 -22 69 -26 145 -26 109 1 160 21 237 92 49 46 108 147 108 186 0 9 2 17 5
17 3 0 54 -37 112 -81 59 -45 123 -89 143 -97 52 -22 131 -42 167 -42 30 0 32
-2 28 -27 -3 -16 -12 -70 -20 -121 -29 -171 -107 -344 -204 -453 l-46 -51 -89
56 c-125 78 -142 76 -202 -31 -46 -83 -167 -207 -246 -252 -31 -17 -88 -42
-126 -55 l-69 -24 -70 27 c-136 53 -269 165 -333 282 -44 78 -73 109 -103 109
-12 0 -63 -25 -112 -56 l-90 -56 -44 48 c-24 27 -64 83 -88 126 -49 83 -76
102 -125 86 -31 -11 -53 -57 -42 -90 23 -73 183 -287 235 -314 48 -25 89 -17
164 30 l69 44 25 -36 c104 -156 262 -273 447 -332 l71 -23 74 22 c124 38 242
106 336 195 46 43 97 100 115 127 29 46 33 48 52 35 163 -106 195 -104 302 24
149 179 222 352 260 619 l17 117 48 22 c65 31 145 106 209 197 59 87 71 134
46 183 -23 45 -63 62 -146 62 l-70 0 0 54 0 55 66 58 c91 81 224 238 307 363
330 500 407 1138 207 1705 -40 113 -74 181 -95 189 -37 14 -74 6 -94 -20 -12
-15 -21 -33 -21 -40 0 -8 18 -60 41 -116 36 -90 99 -308 99 -342 0 -9 -30 -7
-122 10 -675 124 -1364 61 -1893 -173 -104 -46 -238 -119 -292 -159 -18 -14
-70 -40 -115 -60 -321 -137 -624 -408 -820 -732 l-50 -84 -19 29 c-21 31 -21
42 11 200 102 497 375 999 744 1367 383 382 865 643 1471 796 217 55 186 58
327 -37 171 -115 339 -278 452 -436 22 -32 51 -60 63 -63 40 -10 73 4 90 40
15 32 15 36 -3 70 -59 111 -308 369 -461 479 -277 198 -596 319 -935 356 -147
16 -222 14 -247 -6z m369 -2026 c265 -63 489 -176 693 -351 l77 -67 0 -505 c0
-485 -1 -505 -18 -492 -10 7 -118 96 -240 198 -123 102 -250 200 -282 218 -67
38 -146 62 -202 62 -36 0 -49 12 -28 25 34 21 -13 115 -59 115 -38 0 -53 -13
-110 -99 -74 -109 -82 -116 -146 -116 -64 0 -72 7 -146 116 -57 86 -72 99
-110 99 -46 0 -93 -94 -59 -115 21 -13 8 -25 -27 -25 -57 0 -136 -24 -203 -62
-32 -18 -159 -116 -282 -218 -122 -102 -233 -193 -245 -203 l-23 -18 0 510 0
510 78 67 c194 167 409 280 648 340 151 37 211 43 404 39 141 -3 195 -9 280
-28z m-472 -1116 c47 -36 92 -51 157 -51 66 0 110 15 158 52 38 30 40 30 140
26 74 -4 115 -11 148 -25 25 -12 158 -114 295 -228 137 -114 265 -217 284
-230 50 -32 103 -47 188 -54 l75 -6 -42 -53 c-97 -123 -250 -164 -383 -104
-24 10 -122 80 -218 155 -185 144 -242 178 -328 196 -70 15 -564 15 -634 0
-86 -18 -143 -52 -328 -196 -96 -75 -194 -145 -218 -155 -134 -60 -286 -18
-383 104 l-42 53 79 6 c91 8 153 28 203 66 20 15 140 113 266 218 127 104 237
196 247 203 39 30 124 51 211 52 82 0 91 -2 125 -29z m503 -487 c26 -12 50
-27 54 -33 4 -7 -1 -44 -10 -83 -14 -57 -26 -79 -59 -113 -71 -74 -150 -83
-250 -30 -37 19 -77 35 -91 35 -14 0 -54 -16 -91 -35 -36 -19 -80 -35 -97 -35
-106 0 -183 65 -211 175 -16 64 -16 68 1 81 73 58 111 63 428 61 263 -2 283
-3 326 -23z"/>
<path d="M2515 2925 c-53 -52 -19 -165 50 -165 14 0 37 11 50 25 53 52 19 165
-50 165 -14 0 -37 -11 -50 -25z"/>
<path d="M1715 2605 c-14 -13 -25 -36 -25 -51 0 -57 134 -145 251 -166 99 -17
204 12 320 89 43 28 61 67 47 102 -19 52 -72 65 -123 30 -75 -51 -124 -69
-185 -69 -63 0 -101 14 -176 65 -46 32 -78 32 -109 0z"/>
<path d="M2847 2618 c-24 -19 -36 -59 -25 -90 16 -46 145 -119 245 -138 110
-22 245 19 333 100 47 44 52 79 15 115 -31 32 -63 32 -109 0 -133 -90 -224
-89 -361 4 -34 24 -73 27 -98 9z"/>
</g>
</svg>
